# xmcd
#
# Track frame offsets:
#	150
#	19238
#	36734
#	46370
#	60752
#	80656
#	91154
#	103241
#	121276
#	128871
#	144522
#	168065
#
# Disc length: 2542 seconds
#
# Revision: 0
# Processed by: cddbd v1.5.1PL2 Copyright (c) Steve Scherf et al.
# Submitted via: dBpowerAMP V4.0
#
DISCID=9d09ec0c
DTITLE=Thom Davis - Sharp Shooter Blues
DYEAR=2003
DGENRE=Blues
TTITLE0=Thom Davis - Walkin' Blues (R. Johnson) 
TTITLE1=Thom Davis - Light Rain (T. Mahal)
TTITLE2=Thom Davis - Sharp Shooter Blues
TTITLE3=Thom Davis - Boats Up The River (J. Jackson)
TTITLE4=Thom Davis - Honey Bee (Morganfield)
TTITLE5=Thom Davis - Carrousel Rag
TTITLE6=Thom Davis - Sportin' Life Blues (McGhee)
TTITLE7=Thom Davis - Big Mama's Door (Hart)
TTITLE8=Thom Davis - NYC Blues (Stevens)
TTITLE9=Thom Davis - Fishin' Blues (H. Thomas)
TTITLE10=Thom Davis - Mississippi Blues (W. Brown)
TTITLE11=Thom Davis - 61 Highway (Mc Dowell)
EXTD=
EXTT0=
EXTT1=
EXTT2=
EXTT3=
EXTT4=
EXTT5=
EXTT6=
EXTT7=
EXTT8=
EXTT9=
EXTT10=
EXTT11=
PLAYORDER=
